<?xml version="1.0" encoding="UTF-8"?>
<svg id="Layer_2" data-name="Layer 2" xmlns="http://www.w3.org/2000/svg" viewBox="0 0 95.76 95.93">
  <defs>
    <style>
      .cls-1 {
        fill: #ed1c24;
        fill-rule: evenodd;
      }
    </style>
  </defs>
  <g id="Layer_1-2" data-name="Layer 1">
    <path class="cls-1" d="M61.3,10.66c-12.89,0-24.31,24.31-29.98,39.85-4.2,11.88-7.77,33.17,3.11,37.28,11.34,4.66,23.3-13.99,24.31-25.4,1.01-10.33-3.65-13.43-7.77-18.09,8.31-5.67,9.32-6.21,15.54-16.54,3.11-9.87,0-16.54-5.21-17.09h0ZM27.67,22.07C52.52,.32,84.6-6.98,95.01,7.55c3.57,13.44-6.21,23.77-16.62,30.06,9.32,4.12,14.52,9.79,9.87,20.19-4.12,7.22-6.76,10.8-13.99,16.54-25.32,22.29-56.39,27.96-69.36,13.98C-6.51,72.79,2.35,44.28,27.67,22.07h0Z"/>
  </g>
</svg>